<?xml version="1.0" encoding="UTF-8" standalone="no"?><svg xmlns="http://www.w3.org/2000/svg" height="48" viewBox="0 0 48 48"><path d="M23.87.99h.26q7 0 13.07 4.12 1.24.88 2.62 2.15 1.63 1.6 2.12 2.3 1.28 1.63 1.93 2.77Q47 17.79 47 23.87v.26q0 7-4.12 13.07-.88 1.24-2.16 2.61-1.6 1.64-2.29 2.13-1.63 1.27-2.77 1.93Q30.2 47 24.13 47h-.26q-7 0-13.07-4.11-1.24-.89-2.62-2.16-1.63-1.6-2.12-2.29-1.28-1.63-1.93-2.78Q.99 30.21.99 24.13v-.26q0-7 4.12-13.08Q6 9.55 7.27 8.18q1.6-1.63 2.29-2.12 1.63-1.28 2.77-1.93Q17.8.99 23.87.99z" fill="#ffffff"/><path d="M24.37 10c-7.27 0-11.12 4.88-11.12 10.2 0 2.46 1.31 5.54 3.41 6.51.32.15.5.09.57-.22l.46-1.91a.5.5 0 00-.11-.48 6.55 6.55 0 01-1.26-3.85c0-3.71 2.82-7.3 7.6-7.3 4.14 0 7.04 2.81 7.04 6.85 0 4.55-2.3 7.7-5.3 7.7-1.65 0-2.88-1.36-2.49-3.04.48-2 1.4-4.16 1.4-5.6 0-1.3-.7-2.37-2.13-2.37-1.7 0-3.05 1.74-3.05 4.09 0 1.49.5 2.5.5 2.5l-1.97 8.37a16.3 16.3 0 00-.06 4.83c.08.68.23 1.7.23 1.72a19.57 19.57 0 003.02-5.73l1.04-4c.55 1.04 2.16 1.93 3.86 1.93 5.08 0 8.74-4.67 8.74-10.47 0-5.57-4.54-9.73-10.38-9.73z" fill="#ff9861"/></svg>