<?xml version="1.0" encoding="UTF-8" standalone="no"?><svg xmlns="http://www.w3.org/2000/svg" height="48" viewBox="0 0 48 48"><path d="M23.87.99h.26q7 0 13.07 4.12 1.24.88 2.62 2.15 1.63 1.6 2.12 2.3 1.28 1.63 1.93 2.77Q47 17.79 47 23.87v.26q0 7-4.12 13.07-.88 1.24-2.16 2.61-1.6 1.64-2.29 2.13-1.63 1.27-2.77 1.93Q30.2 47 24.13 47h-.26q-7 0-13.07-4.11-1.24-.89-2.62-2.16-1.63-1.6-2.12-2.29-1.28-1.63-1.93-2.78Q.99 30.21.99 24.13v-.26q0-7 4.12-13.08Q6 9.55 7.27 8.18q1.6-1.63 2.29-2.12 1.63-1.28 2.77-1.93Q17.8.99 23.87.99z" fill="#ffffff"/><path d="M24.7 10v19.14a4.05 4.05 0 01-7.28 2.44 4.05 4.05 0 014.46-6.32v-4.9a8.86 8.86 0 00-7.55 14.97 8.86 8.86 0 0015.2-6.2v-9.77a11.46 11.46 0 006.67 2.14v-4.8a6.76 6.76 0 01-4.95-2.17 6.68 6.68 0 01-1.73-3.91V10H28.2z" clip-rule="evenodd" fill="#ff9861" fill-rule="evenodd"/></svg>