<?xml version="1.0" encoding="UTF-8" standalone="no"?><svg xmlns="http://www.w3.org/2000/svg" height="48" viewBox="0 0 48 48"><path d="M23.87.99h.26q7 0 13.07 4.12 1.24.88 2.62 2.15 1.63 1.6 2.12 2.3 1.28 1.63 1.93 2.77Q47 17.79 47 23.87v.26q0 7-4.12 13.07-.88 1.24-2.16 2.61-1.6 1.64-2.29 2.13-1.63 1.27-2.77 1.93Q30.2 47 24.13 47h-.26q-7 0-13.07-4.11-1.24-.89-2.62-2.16-1.63-1.6-2.12-2.29-1.28-1.63-1.93-2.78Q.99 30.21.99 24.13v-.26q0-7 4.12-13.08Q6 9.55 7.27 8.18q1.6-1.63 2.29-2.12 1.63-1.28 2.77-1.93Q17.8.99 23.87.99z" fill="#ffffff"/><path d="M38 24.2a3.06 3.06 0 00-5.2-2.2c-2.1-1.51-4.99-2.5-8.2-2.62l1.4-6.57 4.57.98a2.18 2.18 0 10.23-1.05l-5.1-1.08a.53.53 0 00-.4.07c-.12.08-.2.2-.22.35l-1.56 7.33A15.2 15.2 0 0015.2 22a3.06 3.06 0 10-3.39 5c-.04.3-.07.6-.07.93 0 4.72 5.5 8.56 12.27 8.56s12.27-3.82 12.27-8.56c0-.3-.03-.63-.08-.93a3.1 3.1 0 001.8-2.8zm-21.02 2.18a2.18 2.18 0 114.36 0 2.18 2.18 0 01-4.36 0zm12.21 5.8c-1.5 1.5-4.36 1.6-5.19 1.6-.85 0-3.71-.12-5.2-1.6a.56.56 0 010-.8.56.56 0 01.8 0c.96.95 2.97 1.28 4.4 1.28 1.43 0 3.46-.33 4.4-1.28a.56.56 0 01.8 0c.2.22.2.57 0 .8zm-.4-3.59a2.18 2.18 0 110-4.37 2.18 2.18 0 010 4.37z" fill="#ff9861"/></svg>